<svg width="25" height="24" viewBox="0 0 25 24" fill="none" xmlns="http://www.w3.org/2000/svg">
<g id="Frame" clip-path="url(#clip0_1744_12955)">
<path id="Vector" d="M23.5902 8.36708C23.5902 8.36708 23.5901 8.36712 23.5901 8.36718C23.5631 8.4508 23.5356 8.53276 23.5076 8.61299C23.3986 8.92517 22.974 8.89086 22.8666 8.57813C22.2659 6.8282 21.2273 5.24537 19.8334 3.98807C17.829 2.17958 15.241 1.18399 12.5451 1.18399C9.84917 1.18399 7.26209 2.17927 5.25798 3.98715C3.85985 5.24798 2.81891 6.83664 2.21846 8.59253C2.10027 8.93814 1.61992 8.98512 1.49872 8.64056C1.47125 8.56246 1.4668 8.46613 1.49318 8.38765C3.06405 3.71468 7.45392 0.428711 12.5454 0.428711C17.6808 0.428711 22.0134 3.70537 23.5904 8.36689C23.5904 8.36698 23.5903 8.36708 23.5902 8.36708Z" fill="url(#paint0_linear_1744_12955)"/>
<path id="Vector_2" d="M12.545 2.09586C12.5451 2.09591 12.545 2.09601 12.545 2.09601C7.62969 2.09611 3.47187 5.66838 2.67295 10.4862C2.64276 10.6683 2.70855 10.8542 2.85555 10.9658C3.07562 11.1329 3.44368 11.38 4.12536 11.7825C4.82815 12.1978 5.39008 12.5047 5.59894 12.6178C5.95667 12.8108 6.38772 12.5502 6.38772 12.1438V10.2864C6.38772 9.97469 6.64038 9.72203 6.95205 9.72203H7.81865C8.13033 9.72203 8.38299 9.97469 8.38299 10.2864V14.0206C8.38299 14.0756 8.40987 14.1271 8.45494 14.1587C8.50452 14.1933 8.55331 14.228 8.60132 14.2629C9.00093 14.5525 9.6032 14.2831 9.6032 13.7896V8.59221C9.6032 8.28053 9.85586 8.02787 10.1675 8.02787H11.0335C11.3452 8.02787 11.5979 8.28053 11.5979 8.59221V17.575C11.5979 17.6604 11.6176 17.7446 11.6536 17.8222C11.7125 17.9492 11.7695 18.0823 11.8232 18.222C11.9048 18.4325 12.4641 18.4228 12.5342 18.2081C12.573 18.0892 12.6165 17.9698 12.6653 17.8498C12.6974 17.7706 12.7304 17.6935 12.7643 17.6184C12.7987 17.542 12.8178 17.4594 12.8178 17.3755V9.72144C12.8178 9.40977 13.0704 9.15711 13.3821 9.15711H14.2481C14.5598 9.15711 14.8124 9.40977 14.8124 9.72144V14.1262C14.8124 14.4124 15.1586 14.5665 15.3823 14.3879C15.5104 14.2856 15.6457 14.1827 15.7883 14.0799C15.94 13.9706 16.0332 13.7966 16.0332 13.6096V8.16369C16.0332 7.85201 16.2859 7.59935 16.5976 7.59935H17.4636C17.7752 7.59935 18.0279 7.85201 18.0279 8.16368V12.0092C18.0279 12.42 18.4522 12.692 18.8226 12.5145C18.9495 12.4537 19.086 12.3877 19.2329 12.3161C19.4521 12.2095 20.0418 11.9183 20.7802 11.5216C21.5732 11.0957 21.9623 10.8496 22.1835 10.6866C22.3362 10.574 22.4 10.3803 22.3635 10.1941C21.448 5.52467 17.3604 2.09581 12.5451 2.0957C12.545 2.0957 12.545 2.0958 12.545 2.09586ZM17.0522 5.96098C17.0252 5.96098 16.9986 5.9596 16.9722 5.95693C16.7181 5.93108 16.4341 5.9087 16.2323 6.06537L14.7852 7.18896C14.6573 7.28833 14.617 7.4594 14.617 7.62142C14.617 8.06098 14.2624 8.41746 13.8252 8.41746C13.3879 8.41746 13.0333 8.06098 13.0333 7.62142C13.0333 7.51568 12.9918 7.4089 12.9013 7.35423L11.331 6.40577C11.1481 6.29529 10.919 6.3159 10.7069 6.34191C10.6752 6.3458 10.6428 6.34781 10.61 6.34781C10.6067 6.34781 10.6035 6.34779 10.6003 6.34775C10.3794 6.34509 10.1404 6.34971 9.9674 6.48696L8.33173 7.78437C8.19469 7.89307 8.15492 8.07979 8.15492 8.2547C8.15492 8.69426 7.80032 9.05074 7.3631 9.05074C6.92587 9.05074 6.57127 8.69426 6.57127 8.2547C6.57127 7.81514 6.92617 7.45927 7.3631 7.45927C7.38337 7.45927 7.40346 7.46003 7.42332 7.46153C7.67141 7.48021 7.94679 7.49451 8.14172 7.33991L9.6031 6.18091C9.78336 6.03795 9.81785 5.78214 9.81785 5.55207C9.81785 5.11252 10.1724 4.75603 10.6097 4.75603C11.0469 4.75603 11.4015 5.11252 11.4015 5.55207C11.4015 5.73625 11.4551 5.93509 11.6127 6.03033L12.917 6.81829C13.1339 6.9493 13.411 6.89591 13.6588 6.84309C13.7123 6.83168 13.7679 6.82568 13.8249 6.82568C13.8502 6.82568 13.8752 6.82688 13.8999 6.82922C14.1514 6.85306 14.4315 6.8732 14.631 6.71828L16.0972 5.57973C16.22 5.48436 16.2607 5.32104 16.2607 5.16555C16.2607 4.72538 16.6147 4.3692 17.0519 4.3692C17.4891 4.3692 17.8441 4.72568 17.8441 5.16555C17.8441 5.60541 17.4895 5.96098 17.0519 5.96098H17.0522Z" fill="url(#paint1_linear_1744_12955)"/>
<path id="Vector_3" d="M12.5745 23.8522C13.223 23.8731 13.3822 23.9313 14.4018 23.7808C16.2147 23.5138 17.5115 22.9676 17.8581 22.8168C18.6835 22.4575 19.672 22.0177 20.7269 21.0831C21.234 20.634 21.9911 19.8625 22.6295 18.7339C22.8744 18.3011 23.368 17.3447 23.7327 15.4813C23.9291 14.4777 24.1196 13.0487 24.0626 11.2851C24.0498 10.8897 23.3635 10.7654 23.0957 11.0567C22.8573 11.3157 22.56 11.5615 21.1941 12.2953C20.3772 12.734 19.747 13.0417 19.6159 13.1058C17.467 14.1523 17.5054 14.0171 16.8486 14.4248C15.6699 15.1567 14.9527 15.9604 14.7113 16.244C14.3436 16.6753 13.8478 17.2668 13.4752 18.1818C13.1599 18.9561 13.1054 19.7203 13.016 20.6273C13.0086 20.7031 13.0014 20.7834 12.9947 20.8653C12.9598 21.2908 13.4 21.5775 13.7754 21.3739C15.0041 20.7075 16.2587 19.8972 17.4836 19.0016C18.0003 18.6237 18.4956 19.0964 18.0482 19.5542C16.4979 21.1408 14.5362 22.645 12.5745 23.8521C12.5744 23.8521 12.5744 23.8522 12.5745 23.8522Z" fill="url(#paint2_linear_1744_12955)"/>
<path id="Vector_4" d="M11.8088 24C11.809 24 11.8089 24.0003 11.8088 24.0003C11.188 23.9884 11.0343 24.0358 10.0593 23.8424C8.32536 23.4982 7.0893 22.9127 6.75878 22.7515C5.97214 22.368 5.03 21.8991 4.02993 20.9547C3.5494 20.5007 2.83289 19.7267 2.23437 18.6174C2.00478 18.1923 1.54285 17.2543 1.21539 15.4568C1.0402 14.4949 0.875228 13.1325 0.946822 11.4659C0.963278 11.0828 1.62585 10.9729 1.87733 11.2624C2.10265 11.5214 2.38468 11.7709 3.68508 12.5387C4.46258 12.9979 5.06293 13.3228 5.18763 13.3902C7.23443 14.4953 7.19937 14.3644 7.8238 14.7862C8.94492 15.543 9.62241 16.3461 9.85047 16.6287C10.1978 17.0587 10.6661 17.6479 11.0121 18.5402C11.3052 19.2951 11.3484 20.0274 11.4235 20.8983C11.4278 20.9489 11.432 21.0016 11.436 21.0555C11.4682 21.4883 11.0113 21.7683 10.6389 21.5453C9.542 20.8886 8.42553 20.1106 7.33262 19.2598C6.82452 18.8643 6.32375 19.3189 6.76499 19.7879C8.20767 21.3212 10.0066 22.793 11.8088 24Z" fill="url(#paint3_linear_1744_12955)"/>
</g>
<defs>
<linearGradient id="paint0_linear_1744_12955" x1="12.5218" y1="0.428711" x2="12.5218" y2="9.66888" gradientUnits="userSpaceOnUse">
<stop stop-color="white"/>
<stop offset="1" stop-color="white" stop-opacity="0.86"/>
</linearGradient>
<linearGradient id="paint1_linear_1744_12955" x1="12.5232" y1="2.0957" x2="12.5232" y2="19.9127" gradientUnits="userSpaceOnUse">
<stop stop-color="white"/>
<stop offset="1" stop-color="white" stop-opacity="0.86"/>
</linearGradient>
<linearGradient id="paint2_linear_1744_12955" x1="18.3235" y1="9.56787" x2="18.3235" y2="23.8809" gradientUnits="userSpaceOnUse">
<stop stop-color="white"/>
<stop offset="1" stop-color="white" stop-opacity="0.86"/>
</linearGradient>
<linearGradient id="paint3_linear_1744_12955" x1="6.36957" y1="9.79932" x2="6.36957" y2="24.0003" gradientUnits="userSpaceOnUse">
<stop stop-color="white"/>
<stop offset="1" stop-color="white" stop-opacity="0.86"/>
</linearGradient>
<clipPath id="clip0_1744_12955">
<rect width="23.1429" height="23.5714" fill="white" transform="translate(0.929688 0.428711)"/>
</clipPath>
</defs>
</svg>
